<svg width="28" height="28" viewBox="0 0 28 28" fill="none" xmlns="http://www.w3.org/2000/svg">
<rect width="27.6762" height="27.6762" rx="4" fill="#CA0032"/>
<path d="M11.1866 3.84393H16.2857L23.8323 13.9314L16.2857 24.2167H10.9826L3.84393 13.9314L11.1866 3.84393Z" fill="white"/>
<path d="M13.8379 8.84155L11.6741 5.09374L16.0017 5.09374L13.8379 8.84155Z" fill="#322523"/>
<path d="M12.3003 11.1478L10.1365 7.40001L14.4641 7.40001L12.3003 11.1478Z" fill="#322523"/>
<path d="M10.5706 13.4541L8.40677 9.70628L12.7344 9.70628L10.5706 13.4541Z" fill="#322523"/>
<path d="M12.6848 9.61017L10.521 13.358L14.8486 13.358L12.6848 9.61017Z" fill="#322523"/>
<path d="M15.1833 9.61017L13.0195 13.358L17.3471 13.358L15.1833 9.61017Z" fill="#322523"/>
<path d="M17.2974 13.4541L15.1336 9.70628L19.4612 9.70628L17.2974 13.4541Z" fill="#322523"/>
<path d="M13.8379 13.4541L11.6741 9.70628L16.0017 9.70628L13.8379 13.4541Z" fill="#322523"/>
<path d="M13.8379 11.5323L11.6741 7.78453L16.0017 7.78453L13.8379 11.5323Z" fill="#322523"/>
<path d="M15.3754 11.1478L13.2116 7.40001L17.5392 7.40001L15.3754 11.1478Z" fill="#322523"/>
<path d="M13.8381 19.22L11.6743 22.9678L16.0019 22.9678L13.8381 19.22Z" fill="#322523"/>
<path d="M12.3006 16.9137L10.1368 20.6615L14.4644 20.6615L12.3006 16.9137Z" fill="#322523"/>
<path d="M10.5707 14.6074L8.4069 18.3552L12.7345 18.3552L10.5707 14.6074Z" fill="#322523"/>
<path d="M12.6849 18.4514L10.5211 14.7035L14.8487 14.7035L12.6849 18.4514Z" fill="#322523"/>
<path d="M15.1835 18.4514L13.0197 14.7035L17.3473 14.7035L15.1835 18.4514Z" fill="#322523"/>
<path d="M17.2977 14.6074L15.1339 18.3552L19.4615 18.3552L17.2977 14.6074Z" fill="#322523"/>
<path d="M13.8381 14.6074L11.6743 18.3552L16.0019 18.3552L13.8381 14.6074Z" fill="#322523"/>
<path d="M13.8381 16.5292L11.6743 20.277L16.0019 20.277L13.8381 16.5292Z" fill="#322523"/>
<path d="M15.3757 16.9137L13.2119 20.6615L17.5395 20.6615L15.3757 16.9137Z" fill="#322523"/>
<rect width="16.1444" height="1.92196" transform="matrix(1 0 0 -1 5.7659 14.9915)" fill="#322523"/>
<path d="M13.8381 13.8384L11.6743 17.5862L16.0019 17.5862L13.8381 13.8384Z" fill="#CA0032"/>
<path d="M13.8381 14.2229L11.6743 10.4751L16.0019 10.4751L13.8381 14.2229Z" fill="#CA0032"/>
<rect width="4.6127" height="1.15317" transform="matrix(1 0 0 -1 11.5318 14.6071)" fill="#CA0032"/>
</svg>
